<?xml version="1.0" encoding="utf-8"?>
<svg width="39" height="39" viewBox="0 0 39 39" fill="none" xmlns="http://www.w3.org/2000/svg">
  <g>
    <rect width="39" height="39" />
    <g id="SVGRepo_iconCarrier" transform="translate(6.5 3.25)">
      <path id="Shape" d="M0 3.25C0 3.25 0 29.25 0 29.25C0 31.0424 1.45762 32.5 3.25 32.5C3.25 32.5 22.75 32.5 22.75 32.5C24.5424 32.5 26 31.0424 26 29.25C26 29.25 26 9.75 26 9.75C26.0004 9.31896 25.8291 8.9055 25.5239 8.60113C25.5239 8.60113 17.3989 0.476131 17.3989 0.476131C17.0946 0.170753 16.6811 -0.000622451 16.25 3.24863e-06C16.25 3.24863e-06 3.25 3.24863e-06 3.25 3.24863e-06C1.45762 3.24863e-06 0 1.45763 0 3.25C0 3.25 0 3.25 0 3.25ZM22.75 10.4228L22.7516 29.25L3.25 29.25L3.25 3.25L15.5773 3.25L22.75 10.4228L22.75 10.4228Z" fill="#FFFFFF" />
      <path id="Shape" d="M0 0L3.25 0L3.25 6.5L0 6.5L0 0ZM6.5 0L9.75 0L9.75 6.5L6.5 6.5L6.5 0Z" fill="#FFFFFF" transform="translate(6.5 6.5)" />
    </g>
  </g>
</svg>