<?xml version="1.0" encoding="utf-8"?>
<svg width="39" height="39" viewBox="0 0 39 39" fill="none" xmlns="http://www.w3.org/2000/svg">
  <g>
    <rect width="39" height="39" />
    <path id="Shape" d="M18.2797 6.09375C18.2797 9.45924 15.5514 12.1875 12.1859 12.1875C8.82042 12.1875 6.09216 9.45924 6.09216 6.09375C6.09216 2.72826 8.82042 0 12.1859 0C15.5514 0 18.2797 2.72827 18.2797 6.09375C18.2797 6.09375 18.2797 6.09375 18.2797 6.09375ZM0 29.0356C0.108622 22.3831 5.53248 17.047 12.1859 17.047C18.8393 17.047 24.2631 22.3831 24.3718 29.0356C20.5488 30.7886 16.3916 31.6933 12.1859 31.6876C7.83737 31.6876 3.70987 30.7386 -6.19888e-06 29.0356C-6.19888e-06 29.0356 0 29.0356 0 29.0356Z" fill="none" stroke-width="2" stroke="#FFFFFF" stroke-linecap="round" stroke-linejoin="round" transform="translate(7.314 3.656)" />
  </g>
</svg>